<?xml version="1.0" standalone="no"?>
<!DOCTYPE svg PUBLIC "-//W3C//DTD SVG 20010904//EN"
 "http://www.w3.org/TR/2001/REC-SVG-20010904/DTD/svg10.dtd">
<svg version="1.0" xmlns="http://www.w3.org/2000/svg"
 width="300.000000pt" height="300.000000pt" viewBox="0 0 300.000000 300.000000"
 preserveAspectRatio="xMidYMid meet">
<metadata>
Created by potrace 1.11, written by Peter Selinger 2001-2013
</metadata>
<g transform="translate(0.000000,300.000000) scale(0.100000,-0.100000)"
fill="#000000" stroke="none">
<path d="M1399 2686 c-41 -35 -84 -74 -96 -87 l-21 -24 22 -28 22 -27 38 50
c21 27 40 50 42 50 5 0 79 -239 98 -315 25 -103 29 -174 11 -235 -9 -30 -19
-81 -22 -113 -5 -51 -2 -65 25 -120 41 -83 142 -199 232 -267 104 -78 120 -95
120 -126 0 -47 -40 -113 -93 -156 -107 -84 -124 -132 -78 -219 40 -77 39 -101
-4 -146 -19 -20 -35 -41 -35 -48 0 -6 14 -30 31 -53 39 -53 36 -64 -36 -161
-60 -80 -65 -101 -39 -172 10 -30 13 -60 9 -93 l-6 -50 44 41 c65 60 78 65
132 52 90 -23 218 10 291 74 49 43 91 105 78 116 -5 4 -38 13 -74 20 -194 38
-300 155 -302 336 -1 80 6 107 35 149 23 33 89 66 132 66 50 0 111 -35 141
-79 24 -37 26 -47 21 -107 l-5 -67 77 6 c159 13 268 74 330 187 35 63 36 68
36 175 0 103 -2 114 -32 175 -86 175 -243 269 -431 258 -65 -4 -94 -11 -157
-41 -43 -21 -79 -36 -81 -34 -2 1 7 25 20 52 60 127 71 305 26 448 -31 100
-220 375 -354 515 -66 69 -64 69 -147 -2z"/>
<path d="M1299 2248 c-28 -44 -68 -144 -80 -198 -15 -72 -4 -195 25 -284 14
-39 23 -72 22 -73 -1 -1 -31 9 -66 24 -88 35 -215 43 -306 18 -68 -18 -161
-73 -206 -121 -50 -54 -97 -145 -114 -221 -54 -243 123 -443 393 -443 60 0 63
1 53 19 -18 35 -12 101 15 147 42 71 138 104 204 69 73 -37 107 -117 97 -230
-15 -184 -101 -272 -301 -308 -33 -5 -64 -14 -68 -17 -24 -21 70 -137 137
-172 54 -28 190 -27 245 2 74 37 104 104 81 176 -18 52 -15 92 8 118 36 40 72
101 72 121 0 12 -11 36 -25 55 -14 19 -25 37 -25 42 0 4 14 20 30 35 38 33 39
69 5 127 -37 63 -27 95 53 176 69 69 97 119 88 156 -3 12 -39 50 -80 83 -98
80 -170 162 -206 235 -34 68 -37 96 -14 157 19 53 21 162 4 244 -17 82 -23 92
-41 63z m-2 -245 c-2 -16 -4 -3 -4 27 0 30 2 43 4 28 2 -16 2 -40 0 -55z m-30
-160 c-3 -10 -5 -4 -5 12 0 17 2 24 5 18 2 -7 2 -21 0 -30z m139 -205 l29 -33
-32 29 c-31 28 -38 36 -30 36 2 0 16 -15 33 -32z m-554 -13 c12 5 15 -2 14
-34 0 -34 -4 -41 -21 -41 -12 0 -26 -5 -33 -12 -9 -9 -12 -9 -12 0 0 7 -9 21
-21 33 l-21 21 21 14 c12 9 21 22 21 31 0 14 2 14 19 -1 10 -9 25 -14 33 -11z
m168 -45 c0 -5 12 -10 26 -10 21 0 24 -3 16 -13 -6 -7 -9 -23 -5 -35 4 -18 2
-21 -11 -16 -9 3 -23 1 -31 -6 -9 -8 -15 -8 -15 -2 0 6 -7 18 -16 26 -14 15
-14 17 0 32 9 8 16 20 16 25 0 5 5 9 10 9 6 0 10 -4 10 -10z m-79 -120 c12 0
16 -8 15 -30 -1 -20 -6 -30 -17 -30 -8 0 -20 -5 -27 -12 -9 -9 -12 -8 -12 5 0
9 -8 21 -17 27 -17 10 -17 10 0 20 9 6 17 18 17 27 0 13 3 14 12 5 7 -7 19
-12 29 -12z m-177 -57 c19 8 28 -3 15 -19 -7 -9 -7 -19 1 -33 10 -19 8 -21
-20 -21 -16 0 -30 -4 -30 -10 0 -5 -4 -10 -10 -10 -5 0 -10 8 -10 18 0 11 -10
23 -22 29 l-23 10 23 12 c12 6 22 21 22 33 0 20 1 20 20 3 10 -9 26 -15 34
-12z m766 -67 c0 -2 -8 -10 -17 -17 -16 -13 -17 -12 -4 4 13 16 21 21 21 13z
m-40 -29 c0 -2 -10 -12 -22 -23 l-23 -19 19 23 c18 21 26 27 26 19z m-476 -23
c4 -12 13 -14 32 -10 23 6 24 5 14 -14 -8 -14 -8 -26 0 -40 10 -18 8 -20 -18
-20 -15 0 -33 -5 -40 -12 -9 -9 -12 -7 -12 10 0 11 -8 26 -17 32 -17 10 -17
10 0 20 9 6 17 20 17 30 0 24 15 26 24 4z m466 -171 c0 -4 -11 9 -25 29 -14
20 -25 40 -25 45 0 4 11 -9 25 -29 14 -20 25 -40 25 -45z m7 -45 c-3 -7 -5 -2
-5 12 0 14 2 19 5 13 2 -7 2 -19 0 -25z m-54 -68 c-3 -12 -8 -19 -11 -16 -5 6
5 36 12 36 2 0 2 -9 -1 -20z m44 -112 c-3 -7 -5 -2 -5 12 0 14 2 19 5 13 2 -7
2 -19 0 -25z"/>
</g>
</svg>
